# xmcd
#
# Track frame offsets:
#	150
#	13067
#	25647
#	38182
#	50795
#
# Disc length: 852 seconds
#
# Revision: 0
# Processed by: cddbd v1.5.2PL0 Copyright (c) Steve Scherf et al.
# Submitted via: audiograbber 1.83.01
#
DISCID=38035205
DTITLE=Various Artist - AXR PromoCD 20 [CDM)
DYEAR=1994
DGENRE=Pop
TTITLE0=Veikko Lavi - P‰iv‰ Kerrallaan
TTITLE1=Tarja Ylitalo - Silkki‰ Ja Pellavaa
TTITLE2=Pekka Hartonen and Suomen Tanssiorkesteri - Onni
TTITLE3=Eija Kantola - Rakkauden Katse
TTITLE4=Tuomo Salmi - On Perheellisen Pakko Yritt‰‰
EXTD=TR.
EXTT0=
EXTT1=
EXTT2=
EXTT3=
EXTT4=
PLAYORDER=
